<?xml version="1.0" standalone="no"?>
<!DOCTYPE svg PUBLIC "-//W3C//DTD SVG 20010904//EN"
 "http://www.w3.org/TR/2001/REC-SVG-20010904/DTD/svg10.dtd">
<svg version="1.0" xmlns="http://www.w3.org/2000/svg"
 width="200.000000pt" height="200.000000pt" viewBox="0 0 200.000000 200.000000"
 preserveAspectRatio="xMidYMid meet">
<metadata>
Created by potrace 1.11, written by Peter Selinger 2001-2013
</metadata>
<g transform="translate(0.000000,200.000000) scale(0.100000,-0.100000)"
fill="#000000" stroke="none">
<path d="M1750 1453 c-76 -53 -380 -357 -524 -523 l-38 -45 22 44 c12 24 62
116 112 205 159 283 164 294 150 308 -22 22 -110 12 -154 -18 -118 -82 -615
-734 -634 -833 -6 -28 -3 -32 31 -47 45 -18 56 -15 75 22 33 66 127 216 193
309 63 89 211 282 226 295 4 3 19 20 34 38 37 45 34 36 -15 -50 -23 -40 -83
-156 -134 -258 -97 -193 -99 -206 -53 -230 11 -6 28 -9 38 -5 17 5 176 164
456 455 66 69 113 115 105 103 -199 -286 -305 -457 -314 -506 -10 -54 57 -98
114 -73 34 14 128 86 173 132 34 35 38 43 34 82 -2 23 -7 45 -10 49 -4 3 -26
-14 -49 -39 -46 -48 -128 -111 -136 -104 -10 11 159 268 346 524 67 93 101
147 95 153 -6 6 -28 12 -49 15 -21 2 -46 7 -54 9 -9 3 -27 -3 -40 -12z"/>
<path d="M635 1431 c-95 -25 -144 -44 -223 -86 -111 -59 -165 -119 -177 -196
-6 -40 -4 -49 20 -78 38 -44 84 -65 231 -105 126 -35 170 -58 159 -87 -10 -27
-102 -80 -181 -105 -128 -41 -294 -31 -294 18 0 40 -54 9 -66 -38 -17 -68 61
-116 184 -115 208 2 392 81 452 193 24 45 24 49 10 90 -26 74 -78 103 -298
168 -40 11 -82 30 -94 42 l-22 22 48 42 c59 54 136 98 223 128 80 28 151 40
134 23 -6 -6 -11 -18 -11 -27 0 -13 10 -15 63 -12 82 6 129 22 143 50 29 58
-12 84 -141 88 -65 3 -110 -2 -160 -15z"/>
</g>
</svg>
